<?xml version="1.0" encoding="UTF-8"?>
<svg xmlns="http://www.w3.org/2000/svg" xmlns:xlink="http://www.w3.org/1999/xlink" width="128pt" height="128pt" viewBox="0 0 128 128" version="1.1">
<g id="surface1">
<path style=" stroke:none;fill-rule:nonzero;fill:rgb(99.607843%,85.882353%,25.490196%);fill-opacity:1;" d="M 103.246094 63.996094 C 103.246094 85.671875 85.675781 103.242188 64 103.242188 C 42.324219 103.242188 24.753906 85.671875 24.753906 63.996094 C 24.753906 42.320312 42.324219 24.75 64 24.75 C 85.675781 24.75 103.246094 42.320312 103.246094 63.996094 Z M 103.246094 63.996094 "/>
<path style=" stroke:none;fill-rule:nonzero;fill:rgb(99.607843%,65.882353%,19.607843%);fill-opacity:1;" d="M 95.246094 65.746094 C 94.28125 65.746094 93.5 64.964844 93.5 64 C 93.484375 47.714844 80.285156 34.515625 64 34.5 C 63.035156 34.5 62.25 33.714844 62.25 32.75 C 62.25 31.785156 63.035156 31 64 31 C 82.21875 31.019531 96.980469 45.78125 97 64 C 97 64.464844 96.8125 64.910156 96.484375 65.238281 C 96.15625 65.566406 95.710938 65.75 95.246094 65.746094 Z M 95.246094 65.746094 "/>
<path style=" stroke:none;fill-rule:nonzero;fill:rgb(99.607843%,65.882353%,19.607843%);fill-opacity:1;" d="M 64 16.75 C 66.851562 16.753906 69.695312 17.015625 72.5 17.53125 C 72.539062 16.984375 72.5625 16.429688 72.5625 15.871094 C 72.5625 8.070312 64 1.746094 64 1.746094 C 64 1.746094 55.4375 8.070312 55.4375 15.871094 C 55.4375 16.433594 55.464844 16.984375 55.5 17.53125 C 58.304688 17.015625 61.148438 16.753906 64 16.75 Z M 64 16.75 "/>
<path style=" stroke:none;fill-rule:nonzero;fill:rgb(99.607843%,65.882353%,19.607843%);fill-opacity:1;" d="M 64 111.242188 C 66.851562 111.242188 69.695312 110.980469 72.5 110.464844 C 72.539062 111.007812 72.5625 111.558594 72.5625 112.121094 C 72.5625 119.921875 64 126.246094 64 126.246094 C 64 126.246094 55.4375 119.921875 55.4375 112.121094 C 55.4375 111.558594 55.464844 111.007812 55.503906 110.464844 C 58.304688 110.980469 61.148438 111.242188 64 111.242188 Z M 64 111.242188 "/>
<path style=" stroke:none;fill-rule:nonzero;fill:rgb(99.607843%,65.882353%,19.607843%);fill-opacity:1;" d="M 97.410156 30.589844 C 99.421875 32.605469 101.25 34.804688 102.867188 37.148438 C 103.277344 36.792969 103.6875 36.421875 104.082031 36.023438 C 109.601562 30.507812 108.015625 19.980469 108.015625 19.980469 C 108.015625 19.980469 97.492188 18.398438 91.972656 23.914062 C 91.574219 24.3125 91.203125 24.714844 90.847656 25.132812 C 93.195312 26.75 95.390625 28.574219 97.410156 30.589844 Z M 97.410156 30.589844 "/>
<path style=" stroke:none;fill-rule:nonzero;fill:rgb(99.607843%,65.882353%,19.607843%);fill-opacity:1;" d="M 30.589844 97.40625 C 32.609375 99.417969 34.804688 101.246094 37.152344 102.863281 C 36.796875 103.277344 36.421875 103.683594 36.027344 104.078125 C 30.507812 109.597656 19.984375 108.015625 19.984375 108.015625 C 19.984375 108.015625 18.398438 97.488281 23.917969 91.972656 C 24.316406 91.570312 24.71875 91.203125 25.132812 90.84375 C 26.75 93.191406 28.578125 95.386719 30.589844 97.40625 Z M 30.589844 97.40625 "/>
<path style=" stroke:none;fill-rule:nonzero;fill:rgb(99.607843%,65.882353%,19.607843%);fill-opacity:1;" d="M 111.246094 64 C 111.242188 66.851562 110.984375 69.695312 110.46875 72.5 C 111.011719 72.539062 111.5625 72.5625 112.125 72.5625 C 119.925781 72.5625 126.25 64 126.25 64 C 126.25 64 119.925781 55.4375 112.125 55.4375 C 111.5625 55.4375 111.011719 55.464844 110.46875 55.503906 C 110.980469 58.304688 111.242188 61.148438 111.246094 64 Z M 111.246094 64 "/>
<path style=" stroke:none;fill-rule:nonzero;fill:rgb(99.607843%,65.882353%,19.607843%);fill-opacity:1;" d="M 16.753906 64 C 16.757812 66.851562 17.015625 69.695312 17.53125 72.5 C 16.988281 72.539062 16.433594 72.5625 15.875 72.5625 C 8.074219 72.558594 1.75 64 1.75 64 C 1.75 64 8.074219 55.4375 15.875 55.4375 C 16.4375 55.4375 16.988281 55.464844 17.53125 55.5 C 17.019531 58.304688 16.757812 61.148438 16.753906 64 Z M 16.753906 64 "/>
<path style=" stroke:none;fill-rule:nonzero;fill:rgb(99.607843%,65.882353%,19.607843%);fill-opacity:1;" d="M 97.410156 97.40625 C 95.390625 99.417969 93.195312 101.246094 90.847656 102.863281 C 91.203125 103.277344 91.578125 103.683594 91.972656 104.078125 C 97.492188 109.597656 108.015625 108.015625 108.015625 108.015625 C 108.015625 108.015625 109.601562 97.488281 104.082031 91.972656 C 103.683594 91.570312 103.28125 91.203125 102.867188 90.84375 C 101.25 93.191406 99.421875 95.386719 97.410156 97.40625 Z M 97.410156 97.40625 "/>
<path style=" stroke:none;fill-rule:nonzero;fill:rgb(99.607843%,65.882353%,19.607843%);fill-opacity:1;" d="M 30.589844 30.589844 C 28.578125 32.605469 26.75 34.804688 25.132812 37.148438 C 24.722656 36.792969 24.3125 36.421875 23.917969 36.023438 C 18.398438 30.507812 19.984375 19.980469 19.984375 19.980469 C 19.984375 19.980469 30.507812 18.398438 36.027344 23.914062 C 36.425781 24.3125 36.796875 24.714844 37.152344 25.132812 C 34.804688 26.75 32.609375 28.574219 30.589844 30.589844 Z M 30.589844 30.589844 "/>
</g>
</svg>
